# xmcd
#
# Track frame offsets:
#	150
#	17412
#	33669
#	52782
#	67887
#	81773
#	98655
#	113744
#	125752
#	146049
#	161793
#
# Disc length: 2350 seconds
#
# Revision: 0
# Processed by: cddbd v1.4PL0 Copyright (c) Steve Scherf et al.
# Submitted via: dBpowerAMP V4.0
#
DISCID=8a092c0b
DTITLE=Aaron Tippin - Stars and Stripes
DYEAR=2002
DGENRE=Country
TTITLE0=Where The Stars And Stripes And The Eagle Fly
TTITLE1=I'll Take Love Over Money 
TTITLE2=I Believed 
TTITLE3=Honky Tonk If You Love Country 
TTITLE4=If Her Lovin' Don't Kill Me 
TTITLE5=Love Like There's No Tomorrow 
TTITLE6=At The End Of The Day 
TTITLE7=We Can't Get Any Higher 
TTITLE8=Five Gallon Tear 
TTITLE9=This Old Couch 
TTITLE10=Love Me Back 
EXTD=
EXTT0=
EXTT1=
EXTT2=
EXTT3=
EXTT4=
EXTT5=
EXTT6=
EXTT7=
EXTT8=
EXTT9=
EXTT10=
PLAYORDER=
